<?xml version="1.0" encoding="utf-8"?>
<!-- Generator: Adobe Illustrator 21.0.0, SVG Export Plug-In . SVG Version: 6.00 Build 0)  -->
<svg version="1.1" id="Layer_1" xmlns="http://www.w3.org/2000/svg" xmlns:xlink="http://www.w3.org/1999/xlink" x="0px" y="0px"
	 viewBox="0 0 500 500" style="enable-background:new 0 0 500 500;" xml:space="preserve">
<style type="text/css">
	.st0{fill:#570984;}
	.st1{fill:#9F57EA;}
</style>
<g>
	<circle class="st0" cx="250" cy="255" r="144"/>
</g>
<path class="st1" d="M171.9,134c0,0,83.7,16.4,157.6,0.9C329.5,134.9,258.3,81.5,171.9,134z"/>
<path class="st1" d="M106.6,242c0,0,125.8-18,27.4-72.3l8.8-10.8c0,0,129.7,68.6-37.3,96.6L106.6,242z"/>
<path class="st1" d="M110.3,290.2c0,0,68.2-10.7,116.2-39.7c0,0,4-3,11-10c0,0,56.7-74.5,130.4-68.2l5.4,8.3
	c0,0-81.8,2.9-123.8,65.9c0,0-39.7,65.4,140.2,43.7l-3.5,11.8c0,0-108.7,31.5-148.7-26.5c0,0-12-14-33,1c0,0-11.8,10.2-85.4,38.6
	C119.1,315.1,113.2,302.9,110.3,290.2z"/>
<path class="st1" d="M378.5,189.9c0,0-230,89.5,14.5,82.1l0.6-6.9c0,0-214.5,17.9-13.3-71.3L378.5,189.9z"/>
<path class="st1" d="M385.7,208.5c0,0,6.5,21.7,7.6,32.3C393.3,240.9,281.8,255.6,385.7,208.5z"/>
<path class="st1" d="M140.9,349c0,0,53.6-61.5,123.6-16.5c0,0,50.9,49,106.9,0l-19.2,24c0,0-39.7,28-93.7-15
	c0,0-64.3-41.1-102.7,22.5C155.8,364,143.3,352.4,140.9,349z"/>
<path class="st1" d="M190.5,384.5c0,0,44.5-20.8,127.2-2.4C317.7,382.1,253.5,417.5,190.5,384.5z"/>
<path class="st1" d="M341.4,143.7c0,0-108.9,29.8-177.9-2.2l-9.1,5.9c0,0,81.7,54.5,195.9,4.3L341.4,143.7z"/>
</svg>
